<svg xmlns="http://www.w3.org/2000/svg" viewBox="-50 -50 100 100">
	<rect x="-50" y="-50" width="100" height="100" stroke="none" fill="none"></rect>
	<g font-family="Mona Sans, sans-serif">
		<text text-anchor="middle" x="0" y="-10" fill="black" font-size="7px">Room 1</text>
		<text text-anchor="start" x="2" y="39" fill="black" font-size="11px">°C</text>
		<text text-anchor="end" x="40" y="20" fill="black" font-size="1rem">20.5</text>
	</g>
	<g>
		<path d="M 1.83697019872103e-15,30 A 30 30 55.71428571428574 0 1 -24.78716322947985 16.899601741908654 L -33.0495509726398,22.532802322544875 A 40 40 55.71428571428574 0 0 2.4492935982947065e-15 40 L 1.83697019872103e-15,30 Z" opacity="0.1" fill="#ffc107"></path>
		<path d="M -24.78716322947985,16.899601741908654 A 30 30 92.85714285714288 0 1 -15.643056101384934 -25.598726448964676 L -20.85740813517991,-34.131635265286235 A 40 40 92.85714285714288 0 0 -33.0495509726398 22.532802322544875 L -24.78716322947985,16.899601741908654 Z" opacity="0.1" fill="#0d6efd"></path>
		<path d="M -15.643056101384934,-25.598726448964676 A 30 30 37.14285714285714 0 1 2.987035397874506 -29.85092326096204 L 3.9827138638326747,-39.80123101461606 A 40 40 37.14285714285714 0 0 -20.85740813517991 -34.131635265286235 L -15.643056101384934,-25.598726448964676 Z" opacity="0.1" fill="#198754"></path>
		<path d="M 2.987035397874506,-29.85092326096204 A 30 30 74.28571428571428 0 1 29.544232590366242 -5.209445330007911 L 39.39231012048832,-6.945927106677216 A 40 40 74.28571428571428 0 0 3.9827138638326747 -39.80123101461606 L 2.987035397874506,-29.85092326096204 Z" opacity="0.1" fill="#dc3545"></path>
	</g>
	<g text-anchor="middle" dominant-baseline="alphabetic" font-size="8px" font-family="Mona Sans, sans-serif" opacity="0.1" fill="#7f7f7f">
		<text transform="translate(2.6942229581241772e-15,44) rotate(360) translate(-1.33203125,3)">-20</text>
		<text transform="translate(-36.35450606990378,24.78608255479936) rotate(415.7142857142858) translate(-1.33203125,3)">-5</text>
		<text transform="translate(-22.943148948697903,-37.544798791814856) rotate(328.5714285714286) translate(0,3)">20</text>
		<text transform="translate(4.380985250215942,-43.781354116077665) rotate(365.7142857142857) translate(0,3)">30</text>
		<text transform="translate(43.331541132537154,-7.640519817344937) rotate(440) translate(0,3)">50</text>
	</g>
	<path></path>
	<text></text>
	<path d="M 1.959434878635765e-15,32 A 32 32 150.42857142857136 0 1 -15.792262978059128 -27.831716260982237 L -19.74032872257391,-34.7896453262278 A 40 40 150.42857142857136 0 0 2.4492935982947065e-15 40 L 1.959434878635765e-15,32 Z" stroke-width="0.2" opacity="1.0" stroke="#dee2e6" fill="#dee2e633"></path>
</svg>