<svg xmlns="http://www.w3.org/2000/svg" viewBox="-50 -50 100 100" style="user-select:none">
	<rect x="-50" y="-50" width="100" height="100" stroke="none" fill="none"></rect>
	<g font-family="Open Sans, sans-serif">
		<text text-anchor="middle" x="0" y="-10" fill="dee2e6" font-size="7px">Room 1</text>
		<text text-anchor="start" x="2" y="39" fill="dee2e6" font-size="11px">°C</text>
		<text text-anchor="end" x="40" y="20" fill="dee2e6" font-size="1rem">23.2</text>
	</g>
	<g>
		<path d="M 1.83697019872103e-15,30 A 30 30 148.5714285714286 0 1 -15.643056101384934 -25.598726448964676 L -20.85740813517991,-34.131635265286235 A 40 40 148.5714285714286 0 0 2.4492935982947065e-15 40 L 1.83697019872103e-15,30 Z" opacity="0.1" fill="#0d6efd"></path>
		<path d="M -15.643056101384934,-25.598726448964676 A 30 30 37.14285714285714 0 1 2.987035397874506 -29.85092326096204 L 3.9827138638326747,-39.80123101461606 A 40 40 37.14285714285714 0 0 -20.85740813517991 -34.131635265286235 L -15.643056101384934,-25.598726448964676 Z" opacity="0.1" fill="#198754"></path>
		<path d="M 2.987035397874506,-29.85092326096204 A 30 30 74.28571428571428 0 1 29.544232590366242 -5.209445330007911 L 39.39231012048832,-6.945927106677216 A 40 40 74.28571428571428 0 0 3.9827138638326747 -39.80123101461606 L 2.987035397874506,-29.85092326096204 Z" opacity="0.1" fill="#dc3545"></path>
	</g>
	<path fill="#198754" d="M 1.959434878635765e-15,32 A 32 32 160.45714285714146 0 1 -10.70437951909979 -30.156529294848852 L -13.380474398874737,-37.69566161856106 A 40 40 160.45714285714146 0 0 2.4492935982947065e-15 40 L 1.959434878635765e-15,32 Z"></path>
</svg>